# xmcd
#
# Track frame offsets: 
#        150
#        14090
#        26265
#        38367
#        51495
#        64830
#        77842
#        92165
#        104367
#        116537
#        129967
#        145160
#        159380
#        174862
#        187015
#        200655
#        211772
#        224000
#        238970
#        253115
#        267277
#        280077
#        293975
#        305937
#
# Disc length: 4244 seconds
#
# Revision: 1
# Processed by: cddbd v1.5.2PL0 Copyright (c) Steve Scherf et al.
# Submitted via: ExactAudioCopyFreeDBPlugin 1.0
#
DISCID=6b109218
DTITLE=Luella Miller - Complete Recordings (1926-1928)
DYEAR=1993
DGENRE=Blues
TTITLE0=Dago Hill Blues
TTITLE1=Pretty Man Blues
TTITLE2=Pretty Man Blues
TTITLE3=Twelve O'Clock Blues
TTITLE4=Down the Alley
TTITLE5=Down the Alley
TTITLE6=Rattle Snake Groan
TTITLE7=Dreaming of You Blues
TTITLE8=Triflin' Man Blues
TTITLE9=Jackson's Blues
TTITLE10=Peeping at the Rising Sun Blues
TTITLE11=Smiling Rose Blues
TTITLE12=Carrier Pigeon Blues
TTITLE13=Through and Through Blues
TTITLE14=North Wind Blues
TTITLE15=East St. Louis Blues
TTITLE16=Muddy Stream Blues
TTITLE17=Tornado Groan
TTITLE18=Walnut Street Blues
TTITLE19=Tombstone Blues
TTITLE20=Frisco Blues
TTITLE21=Brick House Blues
TTITLE22=Chicago Blues
TTITLE23=Wee Wee Daddy Blues
EXTD=Document DOCD-5183
EXTT0=
EXTT1=
EXTT2=
EXTT3=
EXTT4=
EXTT5=
EXTT6=
EXTT7=
EXTT8=
EXTT9=
EXTT10=
EXTT11=
EXTT12=
EXTT13=
EXTT14=
EXTT15=
EXTT16=
EXTT17=
EXTT18=
EXTT19=
EXTT20=
EXTT21=
EXTT22=
EXTT23=
PLAYORDER=
